<?xml version="1.0" encoding="UTF-8" standalone="no"?>
<!DOCTYPE svg PUBLIC "-//W3C//DTD SVG 1.1//EN"
 "http://www.w3.org/Graphics/SVG/1.1/DTD/svg11.dtd">
<!-- Generated by graphviz version 12.2.1 (20241206.2353)
 -->
<!-- Title: G Pages: 1 -->
<svg width="1354pt" height="203pt"
 viewBox="0.00 0.00 1354.20 202.95" xmlns="http://www.w3.org/2000/svg" xmlns:xlink="http://www.w3.org/1999/xlink">
<g id="graph0" class="graph" transform="scale(1 1) rotate(0) translate(21.6 181.35)">
<title>G</title>
<polygon fill="#111111" stroke="none" points="-21.6,21.6 -21.6,-181.35 1332.6,-181.35 1332.6,21.6 -21.6,21.6"/>
<!-- src/core/BaseSystem.ts -->
<g id="node1" class="node">
<title>src/core/BaseSystem.ts</title>
<path fill="none" stroke="#ff6c60" d="M152.46,-110.75C152.46,-110.75 9.79,-110.75 9.79,-110.75 5.83,-110.75 1.88,-106.79 1.88,-102.83 1.88,-102.83 1.88,-94.92 1.88,-94.92 1.88,-90.96 5.83,-87 9.79,-87 9.79,-87 152.46,-87 152.46,-87 156.42,-87 160.38,-90.96 160.38,-94.92 160.38,-94.92 160.38,-102.83 160.38,-102.83 160.38,-106.79 156.42,-110.75 152.46,-110.75"/>
<text text-anchor="middle" x="81.12" y="-93.45" font-family="Arial" font-size="14.00" fill="#ff6c60">src/core/BaseSystem.ts</text>
</g>
<!-- src/core/ECSManager.ts -->
<g id="node2" class="node">
<title>src/core/ECSManager.ts</title>
<path fill="none" stroke="#ff6c60" d="M353.33,-110.75C353.33,-110.75 206.17,-110.75 206.17,-110.75 202.21,-110.75 198.25,-106.79 198.25,-102.83 198.25,-102.83 198.25,-94.92 198.25,-94.92 198.25,-90.96 202.21,-87 206.17,-87 206.17,-87 353.33,-87 353.33,-87 357.29,-87 361.25,-90.96 361.25,-94.92 361.25,-94.92 361.25,-102.83 361.25,-102.83 361.25,-106.79 357.29,-110.75 353.33,-110.75"/>
<text text-anchor="middle" x="279.75" y="-93.45" font-family="Arial" font-size="14.00" fill="#ff6c60">src/core/ECSManager.ts</text>
</g>
<!-- src/core/BaseSystem.ts&#45;&gt;src/core/ECSManager.ts -->
<g id="edge1" class="edge">
<title>src/core/BaseSystem.ts&#45;&gt;src/core/ECSManager.ts</title>
<path fill="none" stroke="#757575" d="M160.68,-92.25C169.24,-92.14 178,-92.1 186.69,-92.14"/>
<polygon fill="#757575" stroke="#757575" points="186.53,-95.64 196.55,-92.21 186.58,-88.64 186.53,-95.64"/>
</g>
<!-- src/core/ECSManager.ts&#45;&gt;src/core/BaseSystem.ts -->
<g id="edge2" class="edge">
<title>src/core/ECSManager.ts&#45;&gt;src/core/BaseSystem.ts</title>
<path fill="none" stroke="#757575" d="M198.07,-105.53C189.48,-105.62 180.71,-105.65 172.03,-105.6"/>
<polygon fill="#757575" stroke="#757575" points="172.23,-102.1 162.2,-105.52 172.17,-109.1 172.23,-102.1"/>
</g>
<!-- src/core/ZenithKernel.ts -->
<g id="node3" class="node">
<title>src/core/ZenithKernel.ts</title>
<path fill="none" stroke="#ff6c60" d="M547.83,-110.75C547.83,-110.75 405.17,-110.75 405.17,-110.75 401.21,-110.75 397.25,-106.79 397.25,-102.83 397.25,-102.83 397.25,-94.92 397.25,-94.92 397.25,-90.96 401.21,-87 405.17,-87 405.17,-87 547.83,-87 547.83,-87 551.79,-87 555.75,-90.96 555.75,-94.92 555.75,-94.92 555.75,-102.83 555.75,-102.83 555.75,-106.79 551.79,-110.75 547.83,-110.75"/>
<text text-anchor="middle" x="476.5" y="-93.45" font-family="Arial" font-size="14.00" fill="#ff6c60">src/core/ZenithKernel.ts</text>
</g>
<!-- src/core/ECSManager.ts&#45;&gt;src/core/ZenithKernel.ts -->
<g id="edge3" class="edge">
<title>src/core/ECSManager.ts&#45;&gt;src/core/ZenithKernel.ts</title>
<path fill="none" stroke="#757575" d="M361.65,-92.21C369.61,-92.13 377.71,-92.1 385.75,-92.14"/>
<polygon fill="#757575" stroke="#757575" points="385.5,-95.64 395.53,-92.23 385.56,-88.64 385.5,-95.64"/>
</g>
<!-- src/core/ZenithKernel.ts&#45;&gt;src/core/BaseSystem.ts -->
<g id="edge5" class="edge">
<title>src/core/ZenithKernel.ts&#45;&gt;src/core/BaseSystem.ts</title>
<path fill="none" stroke="#757575" d="M419.7,-86.52C401.2,-82.99 380.43,-79.62 361.25,-77.88 289.1,-71.3 270.4,-71.4 198.25,-77.88 182.57,-79.28 165.84,-81.74 150.1,-84.48"/>
<polygon fill="#757575" stroke="#757575" points="149.55,-81.02 140.34,-86.25 150.8,-87.91 149.55,-81.02"/>
</g>
<!-- src/core/ZenithKernel.ts&#45;&gt;src/core/ECSManager.ts -->
<g id="edge6" class="edge">
<title>src/core/ZenithKernel.ts&#45;&gt;src/core/ECSManager.ts</title>
<path fill="none" stroke="#757575" d="M397.04,-105.51C389.12,-105.61 381.02,-105.64 372.97,-105.62"/>
<polygon fill="#757575" stroke="#757575" points="373.19,-102.12 363.16,-105.55 373.14,-109.12 373.19,-102.12"/>
</g>
<!-- src/core/Messenger.ts -->
<g id="node4" class="node">
<title>src/core/Messenger.ts</title>
<path fill="none" stroke="#ff6c60" d="M761.08,-159.75C761.08,-159.75 628.17,-159.75 628.17,-159.75 624.21,-159.75 620.25,-155.79 620.25,-151.83 620.25,-151.83 620.25,-143.92 620.25,-143.92 620.25,-139.96 624.21,-136 628.17,-136 628.17,-136 761.08,-136 761.08,-136 765.04,-136 769,-139.96 769,-143.92 769,-143.92 769,-151.83 769,-151.83 769,-155.79 765.04,-159.75 761.08,-159.75"/>
<text text-anchor="middle" x="694.62" y="-142.45" font-family="Arial" font-size="14.00" fill="#ff6c60">src/core/Messenger.ts</text>
</g>
<!-- src/core/ZenithKernel.ts&#45;&gt;src/core/Messenger.ts -->
<g id="edge7" class="edge">
<title>src/core/ZenithKernel.ts&#45;&gt;src/core/Messenger.ts</title>
<path fill="none" stroke="#757575" d="M532.04,-111.24C561.22,-117.86 597.36,-126.05 628.06,-133.01"/>
<polygon fill="#757575" stroke="#757575" points="627.1,-136.38 637.63,-135.18 628.65,-129.55 627.1,-136.38"/>
</g>
<!-- src/types.ts -->
<g id="node5" class="node">
<title>src/types.ts</title>
<path fill="none" stroke="#ff6c60" d="M944.33,-110.75C944.33,-110.75 875.92,-110.75 875.92,-110.75 871.96,-110.75 868,-106.79 868,-102.83 868,-102.83 868,-94.92 868,-94.92 868,-90.96 871.96,-87 875.92,-87 875.92,-87 944.33,-87 944.33,-87 948.29,-87 952.25,-90.96 952.25,-94.92 952.25,-94.92 952.25,-102.83 952.25,-102.83 952.25,-106.79 948.29,-110.75 944.33,-110.75"/>
<text text-anchor="middle" x="910.12" y="-93.45" font-family="Arial" font-size="14.00" fill="#ff6c60">src/types.ts</text>
</g>
<!-- src/core/ZenithKernel.ts&#45;&gt;src/types.ts -->
<g id="edge10" class="edge">
<title>src/core/ZenithKernel.ts&#45;&gt;src/types.ts</title>
<path fill="none" stroke="#757575" d="M556.16,-93.52C643.18,-91.44 780.98,-91.68 856.07,-94.26"/>
<polygon fill="#757575" stroke="#757575" points="855.93,-97.75 866.06,-94.63 856.19,-90.76 855.93,-97.75"/>
</g>
<!-- src/lib/hydra&#45;runtime.ts -->
<g id="node6" class="node">
<title>src/lib/hydra&#45;runtime.ts</title>
<path fill="none" stroke="#ff6c60" d="M978.83,-43.75C978.83,-43.75 841.42,-43.75 841.42,-43.75 837.46,-43.75 833.5,-39.79 833.5,-35.83 833.5,-35.83 833.5,-27.92 833.5,-27.92 833.5,-23.96 837.46,-20 841.42,-20 841.42,-20 978.83,-20 978.83,-20 982.79,-20 986.75,-23.96 986.75,-27.92 986.75,-27.92 986.75,-35.83 986.75,-35.83 986.75,-39.79 982.79,-43.75 978.83,-43.75"/>
<text text-anchor="middle" x="910.12" y="-26.45" font-family="Arial" font-size="14.00" fill="#ff6c60">src/lib/hydra&#45;runtime.ts</text>
</g>
<!-- src/core/ZenithKernel.ts&#45;&gt;src/lib/hydra&#45;runtime.ts -->
<g id="edge8" class="edge">
<title>src/core/ZenithKernel.ts&#45;&gt;src/lib/hydra&#45;runtime.ts</title>
<path fill="none" stroke="#757575" d="M556.16,-86.66C631.25,-75.01 744.17,-57.48 821.96,-45.41"/>
<polygon fill="#757575" stroke="#757575" points="822.33,-48.89 831.68,-43.9 821.26,-41.97 822.33,-48.89"/>
</g>
<!-- src/modules/Rendering/types.ts -->
<g id="node7" class="node">
<title>src/modules/Rendering/types.ts</title>
<path fill="none" stroke="#ff6c60" d="M789.58,-23.75C789.58,-23.75 599.67,-23.75 599.67,-23.75 595.71,-23.75 591.75,-19.79 591.75,-15.83 591.75,-15.83 591.75,-7.92 591.75,-7.92 591.75,-3.96 595.71,0 599.67,0 599.67,0 789.58,0 789.58,0 793.54,0 797.5,-3.96 797.5,-7.92 797.5,-7.92 797.5,-15.83 797.5,-15.83 797.5,-19.79 793.54,-23.75 789.58,-23.75"/>
<text text-anchor="middle" x="694.62" y="-6.45" font-family="Arial" font-size="14.00" fill="#ff6c60">src/modules/Rendering/types.ts</text>
</g>
<!-- src/core/ZenithKernel.ts&#45;&gt;src/modules/Rendering/types.ts -->
<g id="edge9" class="edge">
<title>src/core/ZenithKernel.ts&#45;&gt;src/modules/Rendering/types.ts</title>
<path fill="none" stroke="#757575" d="M497.03,-86.56C519.24,-73.02 556.95,-51.38 591.75,-37.88 602.09,-33.86 613.26,-30.29 624.28,-27.18"/>
<polygon fill="#757575" stroke="#757575" points="625.02,-30.6 633.76,-24.61 623.19,-23.85 625.02,-30.6"/>
</g>
<!-- src/core/Messenger.ts&#45;&gt;src/types.ts -->
<g id="edge4" class="edge">
<title>src/core/Messenger.ts&#45;&gt;src/types.ts</title>
<path fill="none" stroke="#757575" d="M749.5,-135.51C782.32,-127.98 824.06,-118.4 856.62,-110.92"/>
<polygon fill="#757575" stroke="#757575" points="857.29,-114.36 866.26,-108.71 855.73,-107.54 857.29,-114.36"/>
</g>
<!-- src/types.ts&#45;&gt;src/core/ZenithKernel.ts -->
<g id="edge17" class="edge">
<title>src/types.ts&#45;&gt;src/core/ZenithKernel.ts</title>
<path fill="none" stroke="#757575" d="M867.57,-103.06C798.74,-105.91 659.57,-106.39 567.44,-104.48"/>
<polygon fill="#757575" stroke="#757575" points="567.75,-100.98 557.68,-104.26 567.6,-107.98 567.75,-100.98"/>
</g>
<!-- src/lib/hydra&#45;runtime.ts&#45;&gt;src/modules/Rendering/types.ts -->
<g id="edge14" class="edge">
<title>src/lib/hydra&#45;runtime.ts&#45;&gt;src/modules/Rendering/types.ts</title>
<path fill="none" stroke="#757575" d="M833.26,-31.26C813.3,-29.73 791.76,-27.72 771.79,-25.51"/>
<polygon fill="#757575" stroke="#757575" points="772.39,-22.05 762.06,-24.4 771.59,-29.01 772.39,-22.05"/>
</g>
<!-- src/modules/Rendering/hydration&#45;controller.ts -->
<g id="node10" class="node">
<title>src/modules/Rendering/hydration&#45;controller.ts</title>
<path fill="none" stroke="#ff6c60" d="M1303.08,-23.75C1303.08,-23.75 1030.67,-23.75 1030.67,-23.75 1026.71,-23.75 1022.75,-19.79 1022.75,-15.83 1022.75,-15.83 1022.75,-7.92 1022.75,-7.92 1022.75,-3.96 1026.71,0 1030.67,0 1030.67,0 1303.08,0 1303.08,0 1307.04,0 1311,-3.96 1311,-7.92 1311,-7.92 1311,-15.83 1311,-15.83 1311,-19.79 1307.04,-23.75 1303.08,-23.75"/>
<text text-anchor="middle" x="1166.88" y="-6.45" font-family="Arial" font-size="14.00" fill="#ff6c60">src/modules/Rendering/hydration&#45;controller.ts</text>
</g>
<!-- src/lib/hydra&#45;runtime.ts&#45;&gt;src/modules/Rendering/hydration&#45;controller.ts -->
<g id="edge13" class="edge">
<title>src/lib/hydra&#45;runtime.ts&#45;&gt;src/modules/Rendering/hydration&#45;controller.ts</title>
<path fill="none" stroke="#757575" d="M987.21,-25.9C994.97,-25.29 1003.04,-24.66 1011.27,-24.01"/>
<polygon fill="#757575" stroke="#757575" points="1011.36,-27.52 1021.06,-23.24 1010.82,-20.54 1011.36,-27.52"/>
</g>
<!-- src/modules/Rendering/types.ts&#45;&gt;src/lib/hydra&#45;runtime.ts -->
<g id="edge16" class="edge">
<title>src/modules/Rendering/types.ts&#45;&gt;src/lib/hydra&#45;runtime.ts</title>
<path fill="none" stroke="#757575" d="M798,-14.72C809.8,-15.8 821.67,-16.99 833.03,-18.25"/>
<polygon fill="#757575" stroke="#757575" points="832.37,-21.7 842.7,-19.36 833.16,-14.74 832.37,-21.7"/>
</g>
<!-- src/core/router/guards.ts -->
<g id="node8" class="node">
<title>src/core/router/guards.ts</title>
<path fill="none" stroke="#ff6c60" d="M154.33,-152.75C154.33,-152.75 7.92,-152.75 7.92,-152.75 3.96,-152.75 0,-148.79 0,-144.83 0,-144.83 0,-136.92 0,-136.92 0,-132.96 3.96,-129 7.92,-129 7.92,-129 154.33,-129 154.33,-129 158.29,-129 162.25,-132.96 162.25,-136.92 162.25,-136.92 162.25,-144.83 162.25,-144.83 162.25,-148.79 158.29,-152.75 154.33,-152.75"/>
<text text-anchor="middle" x="81.12" y="-135.45" font-family="Arial" font-size="14.00" fill="#ff6c60">src/core/router/guards.ts</text>
</g>
<!-- src/core/router/index.ts -->
<g id="node9" class="node">
<title>src/core/router/index.ts</title>
<path fill="none" stroke="#ff6c60" d="M348.46,-152.75C348.46,-152.75 211.04,-152.75 211.04,-152.75 207.08,-152.75 203.12,-148.79 203.12,-144.83 203.12,-144.83 203.12,-136.92 203.12,-136.92 203.12,-132.96 207.08,-129 211.04,-129 211.04,-129 348.46,-129 348.46,-129 352.42,-129 356.38,-132.96 356.38,-136.92 356.38,-136.92 356.38,-144.83 356.38,-144.83 356.38,-148.79 352.42,-152.75 348.46,-152.75"/>
<text text-anchor="middle" x="279.75" y="-135.45" font-family="Arial" font-size="14.00" fill="#ff6c60">src/core/router/index.ts</text>
</g>
<!-- src/core/router/guards.ts&#45;&gt;src/core/router/index.ts -->
<g id="edge11" class="edge">
<title>src/core/router/guards.ts&#45;&gt;src/core/router/index.ts</title>
<path fill="none" stroke="#757575" d="M162.67,-134.22C172.09,-134.12 181.74,-134.1 191.26,-134.16"/>
<polygon fill="#757575" stroke="#757575" points="191.22,-137.66 201.25,-134.27 191.29,-130.66 191.22,-137.66"/>
</g>
<!-- src/core/router/index.ts&#45;&gt;src/core/router/guards.ts -->
<g id="edge12" class="edge">
<title>src/core/router/index.ts&#45;&gt;src/core/router/guards.ts</title>
<path fill="none" stroke="#757575" d="M202.77,-147.47C193.32,-147.6 183.59,-147.65 173.94,-147.61"/>
<polygon fill="#757575" stroke="#757575" points="174.21,-144.11 164.18,-147.54 174.15,-151.11 174.21,-144.11"/>
</g>
<!-- src/modules/Rendering/hydration&#45;controller.ts&#45;&gt;src/modules/Rendering/types.ts -->
<g id="edge15" class="edge">
<title>src/modules/Rendering/hydration&#45;controller.ts&#45;&gt;src/modules/Rendering/types.ts</title>
<path fill="none" stroke="#757575" d="M1022.64,-11C1010.5,-10.95 998.41,-10.91 986.75,-10.88 918.64,-10.68 901.61,-10.63 833.5,-10.88 825.52,-10.9 817.28,-10.94 808.98,-10.99"/>
<polygon fill="#757575" stroke="#757575" points="809.14,-7.49 799.16,-11.04 809.18,-14.49 809.14,-7.49"/>
</g>
</g>
</svg>
